<?xml version="1.0" encoding="UTF-8" standalone="no"?>
<!-- Created with Inkscape (http://www.inkscape.org/) -->

<svg
   version="1.1"
   id="svg1"
   width="726.09802"
   height="426.37729"
   viewBox="0 0 726.09803 426.37729"
   sodipodi:docname="z1.svg"
   inkscape:version="1.3.1 (6036e22fae, 2023-11-19, custom)"
   xmlns:inkscape="http://www.inkscape.org/namespaces/inkscape"
   xmlns:sodipodi="http://sodipodi.sourceforge.net/DTD/sodipodi-0.dtd"
   xmlns="http://www.w3.org/2000/svg"
   xmlns:svg="http://www.w3.org/2000/svg">
  <defs
     id="defs1" />
  <sodipodi:namedview
     id="namedview1"
     pagecolor="#ffffff"
     bordercolor="#000000"
     borderopacity="0.25"
     inkscape:showpageshadow="2"
     inkscape:pageopacity="0.0"
     inkscape:pagecheckerboard="0"
     inkscape:deskcolor="#d1d1d1"
     showgrid="false"
     inkscape:zoom="0.7263752"
     inkscape:cx="552.74464"
     inkscape:cy="333.8495"
     inkscape:window-width="1920"
     inkscape:window-height="1031"
     inkscape:window-x="0"
     inkscape:window-y="25"
     inkscape:window-maximized="1"
     inkscape:current-layer="layer1" />
  <g
     inkscape:groupmode="layer"
     id="layer1"
     inkscape:label="Layer 1"
     transform="translate(400.38903,228.96259)">
    <path
       style="fill:#000000;stroke-width:2.30146"
       d="m -350.91553,196.08144 c -0.97336,-0.8549 -2.05044,-1.55436 -2.39352,-1.55436 -0.34308,0 -0.62378,-0.62225 -0.62378,-1.38277 0,-1.697 -1.20473,-2.75583 -3.90742,-3.43417 -1.13191,-0.28407 -1.95858,-0.89068 -1.83705,-1.34801 0.79577,-2.99457 7.23033,-13.61399 10.10307,-16.67385 3.18528,-3.39274 3.71318,-3.67402 6.89515,-3.67402 1.89518,0 4.69528,-0.47185 6.22244,-1.04855 1.52716,-0.57668 4.4196,-1.27011 6.42764,-1.54096 7.35683,-0.99228 11.75621,-4.50046 16.60912,-13.24454 0.89922,-1.62023 2.88639,-4.30778 4.41593,-5.97233 4.56447,-4.96741 5.65927,-8.12957 8.13137,-23.48636 0.92829,-5.76654 3.1973,-14.14286 4.88453,-18.0318 0.61229,-1.4113 2.203,-5.885339 3.53491,-9.942307 1.33191,-4.056968 4.14053,-11.850356 6.24138,-17.318625 2.10085,-5.468269 4.64241,-12.096474 5.64791,-14.729345 1.0055,-2.63287 2.13965,-5.449857 2.52034,-6.259971 0.38069,-0.810114 2.18746,-6.054336 4.01504,-11.653788 1.82758,-5.599476 3.66624,-10.822455 4.08592,-11.606632 0.92783,-1.733667 3.64269,-14.192575 3.66628,-16.8251 0.0182,-2.020981 -4.94622,-18.1279566 -7.84704,-25.4600632 -0.96153,-2.4303418 -1.75216,-5.7444448 -1.75697,-7.3646718 -0.0108,-3.647861 -1.39987,-6.528805 -3.31963,-6.885048 -1.91042,-0.354517 -3.2956,-1.519102 -3.2956,-2.770797 0,-1.448921 -2.33799,-3.968801 -3.68234,-3.968801 -0.63007,0 -1.71311,-0.662821 -2.40675,-1.472935 -0.69364,-0.810114 -2.07338,-1.472934 -3.06608,-1.472934 -0.9927,0 -2.00973,-0.331411 -2.26007,-0.736468 -0.25034,-0.405057 -1.21894,-0.736467 -2.15244,-0.736467 -0.9335,0 -2.48814,-0.786257 -3.45476,-1.747238 -2.21218,-2.199296 -3.77897,-1.699389 -7.70307,2.457775 -1.59061,1.685074 -3.90372,3.692527 -5.14026,4.461005 -2.17304,1.35049 -10.78092,3.036089 -15.53478,3.042049 -2.75109,0.0023 -10.50446,-3.501011 -11.08334,-5.009567 -0.22317,-0.581551 -1.60767,-1.686064 -3.07667,-2.45447 -2.44908,-1.281069 -7.29963,-6.008252 -10.66087,-10.389726 -2.00381,-2.61203 -4.16176,-7.868848 -4.16176,-10.138141 0,-2.524925 -4.64417,-10.473484 -8.46937,-14.495465 -10.71108,-11.262066 -10.56325,-11.061317 -15.55204,-21.119816 -4.63849,-9.352238 -8.13749,-21.382103 -8.909,-30.629903 -0.31949,-3.82955 -0.69237,-4.84367 -2.12648,-5.78334 -1.81834,-1.19142 -3.22068,-4.95886 -3.24616,-8.72094 -0.008,-1.21517 -0.42434,-2.91013 -0.92469,-3.76659 -4.01529,-6.873 -4.14625,-7.32564 -4.26027,-14.72558 -0.12718,-8.25417 0.2142,-10.03865 3.01151,-15.74214 1.77676,-3.62268 4.3294,-11.61261 5.45773,-17.0831 0.22396,-1.08575 1.48442,-3.11631 2.80106,-4.51235 2.28321,-2.42092 2.58105,-2.52145 6.4429,-2.17483 3.13246,0.28115 4.78491,0.9275 7.29987,2.8553 1.78797,1.37054 3.49638,2.49189 3.79648,2.49189 0.30009,0 1.3722,1.40849 2.38246,3.12998 1.01027,1.72149 2.81471,3.99954 4.00986,5.06233 1.19516,1.06278 2.91361,3.4622 3.81878,5.33204 1.43871,2.97197 1.82519,3.30368 3.07179,2.63652 0.7843,-0.41975 1.7697,-0.55076 2.18976,-0.29115 0.42007,0.25961 2.06317,-0.38788 3.65133,-1.43888 1.58816,-1.05099 3.53565,-1.9109 4.32775,-1.9109 1.71527,0 10.2512,-3.52334 11.9058,-4.91431 0.63948,-0.53758 1.63371,-0.98868 2.2094,-1.00242 0.57569,-0.0138 2.37235,-0.66532 3.99258,-1.44794 1.62023,-0.78263 3.37659,-1.4342 3.90303,-1.44795 0.52643,-0.0138 1.85208,-0.48459 2.94587,-1.04632 2.3531,-1.20847 22.15792,-4.14536 31.07652,-4.60838 5.81549,-0.30193 6.42614,-0.48848 8.64804,-2.64203 1.31489,-1.27444 2.58086,-2.91627 2.81326,-3.64851 0.61418,-1.93512 6.30258,-5.02069 9.22713,-5.00509 3.81808,0.0203 8.80948,3.72 10.69932,7.93037 l 1.55819,3.47147 6.54295,0.0267 c 3.59863,0.0147 9.76371,0.31252 13.70018,0.6619 5.3857,0.47799 7.42858,0.41 8.25357,-0.27468 1.54795,-1.28468 20.04284,-1.04369 27.36109,0.35653 3.16353,0.60528 6.34353,1.63596 7.06668,2.2904 1.41457,1.28017 6.02381,1.15821 16.18627,-0.4283 6.27348,-0.97938 21.16609,-0.39035 28.4687,1.12599 3.50772,0.72835 9.87404,1.21846 16.71302,1.28663 9.83082,0.098 11.93889,-0.11348 19.14814,-1.92085 11.41564,-2.86193 15.76482,-4.18552 19.148151,-5.82735 1.620228,-0.78625 5.762856,-2.6015 9.20584,-4.03388 9.495801,-3.95054 13.809175,-5.99463 14.289421,-6.7717 0.857662,-1.38773 17.589392,-9.0221 23.864783,-10.88905 10.823997,-3.22018 19.361102,-5.21456 26.286678,-6.14093 3.645513,-0.48762 10.770834,-1.64728 15.8340458,-2.57701 19.5831242,-3.59596 30.4018272,-5.06459 36.4551502,-4.94878 10.703286,0.20478 15.014611,0.0349 17.170412,-0.67658 4.442278,-1.46609 48.282262,-0.38065 60.799169,1.50533 5.61805,0.84649 10.42437,1.66871 10.68075,1.82716 0.25638,0.15846 3.17804,0.46727 6.49258,0.68626 8.4723,0.55976 11.73013,2.40439 27.43391,15.53337 7.99403,6.68332 10.63707,9.4308 13.83555,14.38223 1.43213,2.21704 7.61464,9.36897 13.73891,15.89319 10.1273,10.78867 13.61454,14.80806 20.92624,24.11954 1.33459,1.69961 3.0895,3.81533 3.8998,4.70159 0.81029,0.88626 2.92584,3.53755 4.70121,5.89174 8.67455,11.50271 10.5762,13.92258 13.69931,17.4325 3.13944,3.52829 10.7341,13.29188 13.1629,16.92208 0.5865,0.87662 3.07859,3.74802 5.53795,6.3809 2.45937,2.63287 5.77598,6.526936 7.37022,8.653485 1.59425,2.126549 3.15724,3.866453 3.4733,3.866453 0.31608,0 1.47777,1.408494 2.58155,3.129986 1.10378,1.721492 2.59006,3.713778 3.30289,4.427307 0.71281,0.713526 2.67786,3.364808 4.36679,5.891738 1.68893,2.526927 3.82054,5.422942 4.73693,6.435584 3.90043,4.31011 17.47152,24.061804 22.01167,32.036324 1.15306,2.025285 2.51778,4.179452 3.03268,4.787037 0.51493,0.607586 2.00856,3.066744 3.31919,5.464799 1.31064,2.39805 3.12147,5.448313 4.02408,6.778373 1.78083,2.624194 6.58328,14.4875761 9.20506,22.739024 0.90091,2.8353988 2.59202,6.8526664 3.75801,8.927249 1.16599,2.074582 2.11999,4.219404 2.11999,4.766254 0,0.54685 0.63366,3.157788 1.40812,5.802096 5.02278,17.14933 6.81744,24.741018 7.83933,33.161808 0.27035,2.227813 0.82233,4.459884 1.22661,4.960175 1.07745,1.333259 0.0741,28.971862 -1.25036,34.440821 -0.58855,2.430342 -1.08189,5.72265 -1.09632,7.316277 -0.0138,1.5936 -0.65889,4.24488 -1.43213,5.89173 -0.77325,1.64684 -2.60321,6.58736 -4.06664,10.97891 -4.23052,12.69548 -8.60753,19.93444 -15.43419,25.52621 -7.11904,5.83121 -11.46691,7.66736 -18.88214,7.97407 -5.34268,0.22094 -6.54045,0.0486 -8.02805,-1.15606 -2.66403,-2.15721 -1.62435,-4.77761 3.15459,-7.95063 5.1593,-3.42558 7.08286,-6.00969 12.13498,-16.30205 2.50148,-5.09614 3.68671,-8.62651 4.53176,-13.49854 0.31615,-1.82276 1.34449,-6.62821 2.28519,-10.67878 1.43751,-6.189912 1.70342,-9.303051 1.66699,-19.516379 -0.0306,-8.557335 -0.39348,-13.567682 -1.22707,-16.938746 -0.65106,-2.63287 -1.51823,-7.514751 -1.92706,-10.8486 -3.2854,-26.791457 -17.94481,-59.8172255 -38.82591,-87.469777 -4.588,-6.075855 -10.50004,-13.316241 -13.13784,-16.089747 -2.63779,-2.773503 -4.79601,-5.424785 -4.79601,-5.891738 -2e-5,-0.46695 -1.14626,-1.763588 -2.54723,-2.881418 -1.40097,-1.117829 -5.46072,-5.719317 -9.0217,-10.225528 -3.56098,-4.506213 -9.12577,-11.33125 -12.36623,-15.166753 -3.24046,-3.835501 -6.57331,-7.913497 -7.40637,-9.062211 -3.99766,-5.512528 -8.3683,-9.353323 -11.99257,-10.538763 -6.13327,-2.0061 -8.27497,-1.65694 -12.8885,2.10122 -2.23766,1.822783 -4.25176,3.894097 -4.47578,4.602922 -1.24024,3.924141 -2.1144,9.554214 -2.60144,16.754581 -0.54698,8.086543 -1.46874,11.345538 -3.90279,13.798659 -0.70885,0.714406 -1.28882,2.103772 -1.28882,3.087483 0,0.983708 -0.45053,2.23909 -1.00118,2.789735 -1.19508,1.195075 -4.15409,7.705601 -4.15409,9.139963 0,0.556095 -0.30908,1.011082 -0.68685,1.011082 -0.37776,0 -0.91954,0.745674 -1.20396,1.657052 -0.28441,0.911378 -0.74068,1.822756 -1.01388,2.025285 -0.7211,0.534507 -4.45998,7.428629 -4.45998,8.223719 0,0.808248 -2.56521,4.485093 -5.28684,7.577928 -1.08503,1.232989 -2.86634,3.567441 -3.95849,5.187671 -1.09216,1.620228 -2.68949,3.940099 -3.54961,5.15527 -0.86015,1.215171 -1.5644,2.453541 -1.56504,2.751971 -0.002,0.889768 -3.41171,4.982845 -7.79102,9.3521444 -3.22619,3.2187991 -5.06183,6.0734841 -8.55487,13.3040043 -2.44604,5.0632123 -4.85263,10.4601593 -5.348,11.9932303 -0.89308,2.763962 -0.50004,9.114104 0.71454,11.544331 0.31175,0.623742 0.9482,3.288257 1.41434,5.921128 1.45486,8.217455 3.88928,15.645394 5.24364,15.999566 1.33103,0.348073 3.54181,4.808187 5.52346,11.143094 0.67854,2.169173 2.67816,6.053784 4.44359,8.632432 1.7654,2.578671 3.4269,5.553239 3.69216,6.610185 0.26527,1.056945 0.93679,2.0961 1.49225,2.309262 0.55548,0.213115 1.00967,0.932045 1.00935,1.597558 -7.4e-4,1.573554 -4.03018,10.089141 -5.08144,10.738843 -0.44533,0.275232 -0.8097,1.015381 -0.8097,1.644784 0,1.174735 -14.88414,16.443937 -16.02926,16.443937 -0.73669,0 -3.11889,4.72954 -3.11889,6.19219 0,3.60648 -10.3945,16.31567 -14.85537,18.16342 -1.14587,0.47463 -2.08337,1.16157 -2.08337,1.52654 0,0.36496 -1.28314,2.06466 -2.8514,3.77711 -1.568259,1.71242 -4.044308,4.93628 -5.502329,7.1641 -3.644938,5.56939 -4.268909,6.28719 -6.819341,7.8451 -5.064778,3.09376 -7.348447,4.62642 -8.393886,5.63344 -0.607585,0.58529 -1.933226,1.30907 -2.945869,1.60845 -1.012642,0.29935 -2.669693,1.30426 -3.682336,2.23313 -2.449582,2.24691 -7.082536,4.77389 -8.752475,4.77389 -0.738654,0 -2.172625,0.74568 -3.186625,1.65706 -1.014,0.91137 -2.592088,2.15416 -3.506873,2.76175 -0.914784,0.60758 -2.422839,1.68467 -3.351225,2.39352 -0.928386,0.70885 -2.188826,1.28881 -2.800969,1.28881 -0.612119,0 -2.051199,0.45109 -3.197925,1.0024 -1.146725,0.55132 -4.252246,2.04267 -6.901135,3.31411 -2.648865,1.27144 -5.069771,2.3117 -5.379778,2.3117 -0.310007,0 -2.119668,0.72859 -4.021456,1.61912 -5.150115,2.41159 -11.724328,2.84062 -20.028341,1.30707 -3.8480416,-0.71062 -9.4154347,-1.5157 -12.37200537,-1.78906 -4.77488523,-0.44145 -5.65958953,-0.77279 -7.91702263,-2.96507 -1.3977918,-1.35744 -2.541456,-2.82711 -2.541456,-3.26593 0,-0.43884 -0.680473,-1.47837 -1.512175,-2.31004 -1.247414,-1.24744 -1.428631,-2.06918 -1.035081,-4.69358 0.400431,-2.67031 1.504993,-4.31287 6.8758878,-10.22479 3.5193697,-3.87388 7.7135275,-8.0865 9.3203609,-9.36137 1.6068334,-1.27487 3.2047142,-2.81959 3.5508077,-3.4327 0.4841812,-0.85766 1.3758129,-1.00277 3.8664526,-0.62929 2.604102,0.39052 3.237165,0.26909 3.237165,-0.62091 0,-0.6085 -0.33141,-1.31118 -0.736467,-1.56151 -1.356274,-0.83824 -0.761806,-4.22641 1.03347,-5.89022 0.973472,-0.90218 2.335269,-2.73354 3.026213,-4.0697 0.690945,-1.33616 2.078173,-3.28729 3.082737,-4.33586 1.004564,-1.04859 3.140941,-3.61801 4.747521,-5.70983 3.488875,-4.54266 4.521333,-5.03706 7.458664,-3.57175 1.229394,0.61332 3.261422,1.1073 4.515626,1.09778 4.680157,-0.0357 20.831228,-5.00803 23.766741,-7.31711 1.05103,-0.82675 2.294164,-1.50317 2.762511,-1.50317 0.468347,0 1.749294,-1.77302 2.846538,-3.94003 1.899441,-3.75127 1.995044,-4.45791 1.995044,-14.747758 0,-9.085221 -0.243196,-11.479683 -1.525937,-15.024 C 65.697698,78.221411 64.566991,74.004215 64.024284,71.168816 63.481576,68.333418 62.316876,63.362264 61.436085,60.121808 59.456622,52.839436 58.599788,48.033389 57.759755,39.500726 57.153551,33.343238 55.112409,19.407897 52.096483,0.83619634 50.84274,-6.8841436 48.396794,-12.847112 43.560299,-19.974066 c -0.9375,-1.381497 -2.799979,-5.135363 -4.138831,-8.341884 -1.338851,-3.206527 -2.898965,-6.709709 -3.466919,-7.78485 -0.567978,-1.075138 -1.032665,-2.815042 -1.032665,-3.866452 0,-1.051409 -0.305312,-1.911653 -0.678471,-1.911653 -0.373136,0 -2.98932,2.120692 -5.813718,4.712651 -2.824421,2.591958 -5.916064,4.948768 -6.870342,5.237353 -1.918267,0.580108 -11.200815,6.61722 -13.2936244,8.645796 -0.731289,0.708849 -1.6154409,1.288817 -1.9648025,1.288817 -0.3493617,0 -1.9052638,1.009306 -3.4575526,2.242911 -1.5522887,1.233606 -4.000582,2.795239 -5.4406516,3.47028 -1.4400696,0.675041 -3.016915,1.614865 -3.504088,2.088483 -1.847405,1.795944 -16.0116949,6.2346782 -32.7548399,10.2645118 -7.462277,1.7960594 -13.050269,2.6836405 -18.043447,2.8659392 -6.624983,0.24186043 -16.529064,1.16845127 -24.326687,2.2758908 -2.859541,0.4061157 -3.367197,0.8415519 -6.532671,5.6030657 -1.887704,2.8395184 -4.717947,6.0136465 -6.289476,7.0536065 -1.571506,1.039984 -2.857286,2.298584 -2.857286,2.796919 0,1.220625 -6.703347,7.426673 -8.709527,8.063418 -0.88056,0.279467 -1.60101,0.75847 -1.60101,1.064426 0,0.305956 -1.48654,1.298714 -3.30343,2.20611 -1.81691,0.907397 -3.55681,2.076055 -3.86645,2.597014 -0.53695,0.903323 -3.69394,2.851647 -6.11553,3.774164 -0.62354,0.237534 -1.45206,1.100973 -1.84117,1.918727 -0.47939,1.007511 -2.78583,2.176491 -7.15446,3.626089 -3.54586,1.176575 -8.09573,2.974706 -10.11082,3.995818 -2.01509,1.021135 -5.57644,2.569212 -7.9141,3.440176 -2.33766,0.870988 -5.48652,2.360309 -6.99743,3.309615 -1.5109,0.949306 -3.20144,1.726026 -3.75676,1.726026 -0.5553,0 -2.53538,0.811242 -4.40016,1.802757 -1.86478,0.991515 -5.10517,2.311955 -7.20086,2.934292 -2.09566,0.622361 -4.26481,1.508746 -4.82029,1.969751 -1.78023,1.477468 -1.09922,3.954139 1.8898,6.87285 1.59489,1.557375 3.31254,3.861643 3.81699,5.120611 1.30445,3.25553 5.45663,7.383751 10.59019,10.529088 2.43035,1.489067 4.58451,2.913027 4.78704,3.164346 0.20253,0.25132 1.61593,1.393879 3.14085,2.538994 3.15081,2.366062 4.63314,5.180448 5.29228,10.04806 0.50482,3.728089 -0.005,5.835489 -1.41271,5.835489 -0.50772,0 -2.11921,0.81168 -3.58107,1.80372 -1.46187,0.99205 -4.24226,2.13198 -6.17864,2.5332 -1.93636,0.40121 -5.42217,1.41487 -7.74623,2.2526 -5.06123,1.82434 -10.29963,2.13352 -13.8179,0.81557 -9.2477,-3.46423 -12.55545,-5.54871 -18.67301,-11.767369 -10.95237,-11.133405 -15.67839,-16.61302 -19.63529,-22.766296 -3.81679,-5.935397 -5.56027,-7.240647 -6.30969,-4.723632 -0.69331,2.328571 -3.51241,7.838014 -6.35277,12.415411 -1.53524,2.474115 -2.79134,4.683287 -2.79134,4.90929 0,0.226004 -2.27777,4.001388 -5.0617,8.389789 -10.32532,16.276037 -20.8964,38.285547 -21.7654,45.316597 -0.28527,2.30821 -1.10338,4.95949 -1.81801,5.89174 -0.71463,0.93228 -1.49436,2.23154 -1.73274,2.88725 -0.4934,1.35726 -6.75554,5.06584 -8.56356,5.07155 -3.70184,0.0115 -12.87795,9.51287 -18.52406,19.18036 -2.58155,4.42023 -7.47807,9.86303 -13.80216,15.34197 -3.0424,2.63582 -9.36888,3.77019 -21.02682,3.77019 -6.07666,0 -9.21211,0.33026 -11.26034,1.18605 -1.56126,0.65235 -5.3301,1.35181 -8.3752,1.55439 -4.88845,0.32519 -5.74369,0.18642 -7.30627,-1.18608 z m 11.71204,-0.70605 c 0,-0.34353 1.24279,-1.17178 2.76175,-1.84054 2.02267,-0.89051 5.12684,-1.23653 11.59936,-1.29294 9.59103,-0.0835 16.11533,-1.06604 17.40586,-2.62102 0.44987,-0.54206 1.27097,-0.98555 1.82467,-0.98555 1.36066,0 9.05973,-7.00636 11.27914,-10.26433 0.9831,-1.44311 4.56695,-5.93795 7.96412,-9.98852 8.17863,-9.7517 8.29188,-9.89342 8.29188,-10.37655 0,-0.22968 1.35063,-1.67684 3.0014,-3.21617 2.14263,-1.99797 3.8799,-2.9166 6.07173,-3.21056 4.78762,-0.64216 5.91862,-2.42912 10.10735,-15.96951 0.93978,-3.03793 2.84014,-8.00908 4.22301,-11.04701 1.38287,-3.03793 3.46459,-7.90436 4.62606,-10.81428 1.16147,-2.90992 2.93608,-6.88685 3.94359,-8.83761 1.00751,-1.95076 2.68954,-5.428915 3.73785,-7.729225 1.04831,-2.300332 4.71013,-9.066993 8.1374,-15.037026 3.42726,-5.970057 6.23139,-11.231747 6.23139,-11.692683 0,-0.460937 0.787,-1.904781 1.74889,-3.208558 0.96189,-1.303754 2.15263,-4.422647 2.64609,-6.930847 1.1484,-5.837193 3.65741,-10.763169 7.17965,-14.095914 1.53257,-1.450104 4.88181,-4.644001 7.44277,-7.097518 l 4.65628,-4.460944 -0.50808,-11.203323 c -0.54707,-12.062804 -1.92342,-17.9542886 -4.77153,-20.4244457 -0.85364,-0.7403567 -1.44746,-1.6105848 -1.31959,-1.9338478 0.12787,-0.32326312 -1.25885,-0.86046994 -3.08161,-1.19381341 -1.82275,-0.33334348 -4.97115,-0.92569329 -6.99644,-1.31636609 -2.02528,-0.3906499 -5.8365,-0.899963 -8.46937,-1.1318121 -2.63287,-0.231826 -5.8232,-1.0218022 -7.08962,-1.7555077 -1.26643,-0.7337055 -3.36591,-1.5675475 -4.66551,-1.8529976 -2.37289,-0.5211656 -8.96002,-3.7439462 -11.98957,-5.8659156 -0.89261,-0.625214 -2.65421,-1.136737 -3.91468,-1.136737 -1.79427,0 -3.04857,-0.799343 -5.77819,-3.682336 -2.32289,-2.453426 -4.0841,-3.682336 -5.27728,-3.682336 -1.65636,0 -1.79085,0.27461 -1.79085,3.656606 0,2.011107 0.51147,5.163072 1.13659,7.0043323 0.70699,2.082384 0.95428,4.3195643 0.65425,5.918872 -0.36818,1.962547 0.071,3.94375895 1.8554,8.3705023 2.24395,5.5667257 2.32574,6.1354854 2.03855,14.1756134 -0.23883,6.686386 -0.74743,9.803944 -2.52103,15.453338 -1.22201,3.892436 -2.76678,8.035064 -3.43281,9.20584 -0.66603,1.170799 -3.83824,9.419738 -7.04936,18.330991 -3.21112,8.911254 -6.79766,18.522151 -7.97009,21.35755 -1.17243,2.835399 -3.20718,8.635078 -4.52167,12.888176 -1.31449,4.253102 -3.21195,10.052782 -4.21657,12.888172 -2.45194,6.92024 -3.68677,12.22658 -4.27615,18.37555 -0.26987,2.81554 -1.02161,6.29535 -1.67053,7.73291 -4.1393,9.16984 -5.56798,11.75689 -7.88576,14.27948 -1.42918,1.55546 -3.17502,4.1348 -3.87963,5.73185 -0.71776,1.62684 -1.94277,3.07715 -2.78576,3.29809 -0.82755,0.21679 -2.40326,1.86303 -3.50158,3.6581 -1.14046,1.86395 -2.56187,3.2738 -3.3141,3.28717 -0.72443,0.0138 -1.96047,0.51001 -2.74673,1.1047 -0.78627,0.59472 -2.51374,1.0813 -3.83883,1.0813 -1.32508,0 -4.19313,0.66742 -6.37344,1.4832 -2.1851,0.81755 -5.45543,1.42677 -7.28699,1.35749 -2.66297,-0.1008 -3.84723,0.29277 -5.96371,1.98156 -1.45251,1.15897 -2.84462,2.91885 -3.09359,3.91082 -0.24897,0.99198 -1.41023,3.19535 -2.58059,4.89641 -1.49168,2.16809 -1.89576,3.32498 -1.35146,3.86928 0.5443,0.5443 0.30625,1.02811 -0.79617,1.61811 -2.34741,1.2563 -1.14848,2.23923 2.74678,2.25196 5.0743,0.0161 6.02541,0.84963 4.03839,3.5372 l -1.59041,2.15115 4.55396,0.73 c 6.29142,1.00848 6.39512,1.01352 6.39512,0.31042 z m -3.7652,-5.81947 c -2.03164,-5.25577 -1.79599,-6.28001 2.40246,-10.4422 2.16721,-2.14851 5.0759,-4.39377 6.46377,-4.98943 3.08772,-1.32527 8.89185,-0.70982 8.89185,0.94286 0,0.82512 -0.91186,1.03278 -3.97259,0.9047 -4.85934,-0.20345 -6.65153,0.96915 -6.05332,3.96022 0.34403,1.72013 0.0668,2.23633 -1.68843,3.144 -1.76751,0.91402 -3.015,2.47734 -3.015,3.77833 0,0.16939 0.50703,0.308 1.12674,0.308 0.89875,0 0.79621,0.44709 -0.50673,2.20941 -2.0191,2.73098 -2.65191,2.7629 -3.64875,0.18411 z m 373.573196,-6.73046 c 2.577083,-1.17015 7.668303,-3.36876 11.313816,-4.88581 8.858826,-3.68655 24.642746,-12.19141 30.56339,-16.46851 2.63287,-1.902 5.946973,-4.02832 7.364672,-4.72515 4.437515,-2.18117 11.200056,-8.41051 14.891253,-13.71717 1.950671,-2.80435 6.399303,-7.85792 9.885833,-11.23013 3.48655,-3.37222 7.95469,-8.57655 9.92919,-11.56518 3.22683,-4.88416 3.59002,-5.85322 3.59002,-9.57893 0,-2.27978 -0.32922,-5.29297 -0.73159,-6.69594 -1.17112,-4.083413 -3.49511,-16.054273 -4.43558,-22.847516 -0.47665,-3.442984 -1.31673,-8.911254 -1.86685,-12.151709 -1.69342,-9.974781 -1.92485,-14.043648 -1.07485,-18.896829 1.52913,-8.730957 4.59286,-20.117914 7.09093,-26.354917 1.36997,-3.42043 2.49087,-6.49831 2.49087,-6.839755 0,-1.27395 9.47484,-20.4091408 11.72509,-23.6797917 1.2862,-1.869407 2.90258,-3.4251023 3.59198,-3.4570693 0.76738,-0.03567 0.89647,-0.202298 0.33286,-0.429613 -1.47208,-0.594007 -1.11455,-1.448793 2.2094,-5.282358 1.7215,-1.985423 4.12422,-4.86524 5.33939,-6.399578 1.21517,-1.53436 2.92175,-3.657572 3.79239,-4.718285 0.87065,-1.060706 2.82222,-4.074487 4.33681,-6.69729 1.51461,-2.622802 3.33833,-5.431552 4.05275,-6.241666 0.7144,-0.810114 2.36388,-3.461396 3.66549,-5.891738 1.30162,-2.430342 2.62786,-4.584508 2.94721,-4.787037 0.58788,-0.372813 3.41571,-7.487961 5.12226,-12.888176 0.51203,-1.620228 1.56925,-3.646155 2.3494,-4.502059 0.78015,-0.855904 1.33328,-1.850134 1.22919,-2.209402 -0.10403,-0.359267 0.57099,-3.114727 1.50018,-6.123246 0.92922,-3.008519 1.51464,-6.322622 1.30095,-7.364672 -0.41725,-2.034751 1.93263,-11.524025 3.75196,-15.151048 1.20957,-2.411435 5.48322,-6.844115 8.3374,-8.647635 0.99113,-0.62629 3.6248,-1.35211 5.85262,-1.61295 3.63909,-0.42607 4.39217,-0.25733 7.41341,1.66111 4.33347,2.7517 16.08387,16.081397 21.37633,24.249404 0.85299,1.316435 1.99295,2.393518 2.53322,2.393518 0.54029,0 1.19271,0.662821 1.44983,1.472934 0.25712,0.810114 0.78477,1.472935 1.17254,1.472935 0.3878,0 1.0233,0.837018 1.41227,1.86004 0.38895,1.023022 1.21667,2.055551 1.83938,2.294507 0.6227,0.238956 3.76744,3.793124 6.98829,7.898151 3.22087,4.105025 6.67253,8.479656 7.67037,9.721402 0.99787,1.241746 2.21962,3.147355 2.71506,4.234686 0.49541,1.087332 1.134,1.976968 1.41906,1.976968 1.87559,0 16.92049,18.044773 16.92049,20.294379 0,0.508096 1.14937,2.299525 2.55416,3.980941 3.62542,4.339334 9.96578,15.8513527 9.96578,18.0945628 0,1.0393394 1.35722,3.9330572 3.01602,6.4304636 1.65882,2.4973834 4.1039,6.7067769 5.43352,9.3541694 3.01949,6.0121502 8.64042,22.3560382 8.87397,25.8027502 0.096,1.4177 0.8696,4.94837 1.719,7.845931 0.84938,2.897561 1.59722,6.377369 1.66182,7.732906 0.12175,2.551583 1.56985,11.505505 2.90007,17.930422 0.90475,4.369944 0.36476,33.58021 -0.65668,35.52159 -0.3767,0.71598 -0.92486,3.40519 -1.21814,5.97606 -0.59435,5.21011 -2.32772,9.85271 -7.31139,19.58266 -1.85415,3.61995 -3.37118,7.0169 -3.37118,7.54879 0,0.53187 -0.24856,0.97591 -0.55235,0.98673 -0.30379,0.0115 -1.95776,1.25363 -3.6755,2.76175 -1.71772,1.50815 -4.12044,3.51295 -5.33939,4.45515 -2.22404,1.71909 -3.01809,4.52266 -1.29565,4.5747 0.50632,0.0161 2.13744,0.2046 3.62471,0.42057 1.99941,0.29037 4.10705,-0.19678 8.08721,-1.86899 2.96067,-1.24394 5.65202,-2.26172 5.98078,-2.26172 1.58286,0 8.95094,-6.38492 11.70113,-10.13979 1.70053,-2.32172 3.29671,-4.38702 3.54706,-4.58955 2.23384,-1.80704 6.51557,-12.06598 7.67705,-18.39401 0.25843,-1.40798 1.09487,-3.89356 1.85875,-5.5235 0.7639,-1.62996 1.56527,-4.7863 1.78085,-7.014115 0.21564,-2.227814 0.92578,-6.370442 1.57825,-9.205841 2.07488,-9.01689 2.67814,-19.596403 1.48294,-26.007672 -0.58036,-3.113231 -1.54814,-9.012196 -2.1506,-13.108795 -0.64484,-4.384673 -1.70275,-8.477773 -2.57199,-9.951007 -0.81212,-1.376434 -2.12335,-5.15 -2.91381,-8.385669 -0.79049,-3.235669 -1.99378,-7.374384 -2.674,-9.197141 -0.68022,-1.822756 -3.81725,-10.779993 -6.97117,-19.9049827 -6.20025,-17.9386153 -8.57881,-23.1759793 -15.99667,-35.2231743 -2.65496,-4.311887 -5.53342,-8.999729 -6.39656,-10.417428 -5.62649,-9.241485 -7.80153,-12.367432 -10.46076,-15.034102 -1.65053,-1.655141 -6.36369,-7.483383 -10.47371,-12.951653 -4.11004,-5.468269 -8.82488,-11.599358 -10.47747,-13.624643 -1.65258,-2.025285 -4.30996,-5.505093 -5.90529,-7.732906 -5.52281,-7.712347 -10.13335,-13.634371 -12.32747,-15.834041 -1.21211,-1.21518 -2.81455,-3.20364 -3.56098,-4.41881 -0.74641,-1.21517 -3.18683,-4.43044 -5.42316,-7.14505 -6.94367,-8.42874 -8.85305,-11.02319 -8.85305,-12.02936 0,-0.53442 -0.96107,-1.74137 -2.13569,-2.68211 -1.17462,-0.94074 -4.3353,-4.83623 -7.02373,-8.65666 -2.68845,-3.82042 -5.53863,-7.40187 -6.33371,-7.95878 -0.79509,-0.5569 -1.44562,-1.43951 -1.44562,-1.96135 0,-0.52184 -0.67067,-1.55573 -1.49033,-2.29753 -1.88121,-1.70247 -2.80092,-0.8806 -3.75214,3.353 -0.3889,1.73087 -1.49091,4.07855 -2.44892,5.21707 -0.95798,1.13851 -1.87624,2.47331 -2.04054,2.9662 -0.16524,0.49569 -0.83808,0.6892 -1.50566,0.43303 -1.0633,-0.40803 -1.08691,-0.70869 -0.19839,-2.52602 1.658,-3.39092 3.58246,-13.77378 3.0583,-16.50011 -0.26451,-1.37583 -1.61314,-3.82714 -2.99696,-5.44737 -2.46443,-2.88546 -2.55817,-2.92288 -4.57128,-1.82481 -1.78623,0.97432 -2.16139,1.79366 -2.86635,6.25997 -1.045,6.62073 -2.97597,11.26283 -4.18295,10.05586 -0.65824,-0.65825 -0.66397,-1.44421 -0.0237,-3.26037 0.46396,-1.31618 1.2131,-5.15671 1.66481,-8.53454 1.18268,-8.84417 0.16824,-12.89991 -4.68108,-18.71427 -4.30304,-5.15941 -6.67131,-4.58517 -5.86554,1.42223 0.64088,4.77819 -3.68862,20.11943 -5.67798,20.11943 -0.94139,0 -0.91713,-0.22176 0.68482,-6.25997 1.05273,-3.96804 1.22744,-6.08809 0.75861,-9.20584 -0.33505,-2.22781 -0.9048,-6.86755 -1.26615,-10.31054 -0.86098,-8.20321 -3.44321,-13.82078 -7.36661,-16.02585 -1.55017,-0.87125 -3.26977,-2.4273 -3.82132,-3.45789 -1.50925,-2.82005 -3.25373,-2.47681 -2.64143,0.51971 0.269,1.31644 0.67364,5.73738 0.89921,9.82432 0.34897,6.32248 0.12243,8.71279 -1.518,16.02597 -1.34343,5.9887 -2.40843,9.07546 -3.51196,10.179 l -1.58384,1.58384 0.49859,-6.5628 c 0.27424,-3.60954 0.62109,-7.54337 0.77078,-8.74186 0.39286,-3.14522 -2.29157,-19.22534 -3.91538,-23.45384 -4.06105,-10.57496 -6.98468,-13.86253 -13.15338,-14.79066 -3.96406,-0.59642 -4.69723,0.72765 -2.5366,4.58087 0.83322,1.48592 2.19921,5.38664 3.03551,8.66827 1.38033,5.4163 1.48182,7.38608 1.1004,21.35755 -0.37647,13.79056 -0.57955,18.52161 -0.92146,21.4668 -0.0587,0.50633 -0.60397,0.92059 -1.21156,0.92059 -1.05487,0 -1.51606,-2.05453 -1.21618,-5.41787 0.067,-0.75202 -0.37755,-3.04919 -0.98799,-5.10483 -0.61047,-2.05563 -1.1083,-4.92015 -1.10629,-6.3656 0.002,-1.44545 -0.471,-4.11943 -1.05113,-5.94218 -0.58012,-1.82276 -1.43597,-5.96539 -1.90188,-9.20584 -1.47134,-10.23341 -4.24085,-16.35918 -11.66078,-25.7921 -2.48252,-3.15599 -8.798276,-4.34569 -12.972733,-2.44368 -2.399779,1.09342 -2.358928,2.02725 0.329293,7.52432 4.94462,10.1112 6.91492,26.00467 6.11383,49.3177 -0.39857,11.59967 -0.58275,13.00415 -1.7052,13.00415 -2.555011,0 -3.629172,-5.65015 -4.690398,-24.67165 -0.04511,-0.81011 -0.78535,-2.46716 -1.644762,-3.68233 -2.322518,-3.28385 -5.319756,-9.47645 -6.881572,-14.218 -6.08223,-18.46517 -6.327704,-18.96656 -12.420589,-25.36712 l -4.031123,-4.23468 h -8.278467 c -6.374331,0 -8.368523,0.23464 -8.669945,1.02015 -0.452812,1.18004 1.063712,3.61104 4.115287,6.59681 2.040244,1.99625 7.834216,13.93202 10.960082,22.57819 1.860523,5.14617 2.846032,14.18499 1.666718,15.28663 -0.553962,0.51747 -0.964842,5.58131 -1.189625,14.66183 -0.305772,12.35256 -0.516954,14.20858 -1.928716,16.95136 -0.871931,1.69401 -1.911454,3.28157 -2.310044,3.52791 -0.950135,0.58722 -2.978665,-4.32012 -2.978665,-7.20589 0,-1.24258 -0.324437,-4.10195 -0.720978,-6.35415 -3.95163,-22.44409 -5.816895,-29.25824 -10.999092,-40.18179 -1.537284,-3.24046 -3.409429,-7.54879 -4.160327,-9.57407 -0.750874,-2.02529 -1.786577,-4.01375 -2.301552,-4.41881 -0.514952,-0.40505 -1.769777,-1.87552 -2.788472,-3.26771 -1.018695,-1.39218 -3.385149,-3.79802 -5.258813,-5.34632 l -3.406621,-2.81508 -9.301374,0.47559 c -5.115755,0.26157 -9.869006,0.76686 -10.562782,1.12287 -1.749477,0.89775 -0.965577,2.39784 2.106136,4.03034 2.524793,1.34183 7.872512,7.51392 11.125925,12.84106 2.633492,4.31207 6.825578,17.94385 7.633805,24.82361 1.078303,9.17854 0.913357,35.72647 -0.251204,40.43046 -0.517875,2.09186 -1.272984,3.7669 -1.678041,3.72232 -0.405057,-0.0446 -1.162352,-1.7452 -1.682897,-3.77915 -0.520521,-2.03395 -1.431899,-4.67129 -2.025284,-5.86075 -0.593363,-1.18946 -1.078856,-3.39284 -1.078856,-4.8964 0,-5.57603 -4.263201,-21.99407 -7.358872,-28.33981 -0.790414,-1.62023 -2.725343,-5.76286 -4.299864,-9.20584 -2.033386,-4.44639 -4.02629,-7.43347 -6.8790185,-10.31054 -2.2089414,-2.22782 -4.7711339,-5.29794 -5.6937892,-6.8225 -2.42656745,-4.00961 -10.5431267,-10.63955 -14.2612503,-11.64916 -2.37513,-0.64493 -3.994598,-0.63592 -6.799963,0.0378 -6.721483,1.61429 -6.658953,1.58561 -5.471238,2.50898 0.585238,0.45499 1.587547,1.63857 2.227376,2.63016 0.639829,0.9916 3.096545,2.98006 5.459385,4.41881 5.356234,3.26143 7.7827788,7.34969 17.4690259,29.43192 2.2664319,5.16691 3.9071198,10.13156 4.2591971,12.88818 0.3149548,2.46611 0.8001486,5.35905 1.078188,6.42877 0.2780624,1.06972 0.230146,2.11514 -0.1065576,2.32316 -0.8840598,0.54634 -0.5981034,5.66801 0.8068459,14.45044 0.6749722,4.21934 1.1289812,9.26422 1.0088911,11.21084 -0.215877,3.49963 -0.2387995,3.52908 -2.0413031,2.62635 -1.3502206,-0.67622 -1.9668508,-1.75597 -2.3779146,-4.16382 -0.5232139,-3.06497 -2.7060337,-10.45914 -4.41376311,-14.95138 -0.42344564,-1.11391 -1.18748439,-2.02529 -1.69783309,-2.02529 -0.5103488,0 -1.316113,-1.5742 -1.790559,-3.49822 -1.9105571,-7.74773 -7.2484255,-20.53565 -10.6868755,-25.6025 -3.700242,-5.4526 -17.608932,-17.77051 -27.109589,-24.00898 -8.323507,-5.4655 -10.276388,-5.85282 -16.396062,-3.25192 -6.118915,2.60057 -6.970616,3.60539 -4.676153,5.51672 0.959088,0.79893 2.344843,1.46362 3.079492,1.4771 1.42389,0.0261 14.427209,10.86504 17.698113,14.75229 1.075518,1.27818 1.955482,2.79565 1.955482,3.37216 0,0.57651 0.459003,1.0482 1.020007,1.0482 0.925325,0 2.048552,1.88056 7.541792,12.62689 0.961803,1.88158 1.748742,3.88802 1.748742,4.45874 0,0.57072 1.022147,2.64941 2.271426,4.61932 1.784345,2.81361 2.121325,3.91103 1.571529,5.1177 -0.844958,1.85449 -0.131414,7.46916 1.972903,15.52421 1.952329,7.47325 3.730322,24.20858 2.683204,25.25569 -0.183887,0.18391 -0.850781,0.13623 -1.481911,-0.10596 -2.223325,-0.85317 -2.900944,-4.66119 -2.706102,-15.20743 0.05638,-3.05452 -2.428018,-8.56631 -4.316964,-9.57724 -1.709893,-0.91511 -4.158301,-4.88125 -5.782649,-9.3673 -1.991177,-5.49906 -5.732016,-11.51261 -8.568474,-13.77409 -1.424327,-1.13563 -4.300462,-4.26367 -6.391361,-6.95121 -3.899157,-5.01172 -14.42447,-15.58386 -19.020831,-19.10543 -1.4177,-1.08619 -2.743341,-2.15352 -2.945869,-2.37183 -0.202529,-0.21832 -2.592664,-1.32923 -5.311402,-2.46869 l -4.943168,-2.07174 -4.46428,1.72802 c -4.647891,1.79911 -5.711073,3.70054 -2.337524,4.1805 2.100611,0.29885 3.231963,1.2075 10.440689,8.38546 3.138869,3.12546 5.903659,6.46613 6.144,7.42372 0.240342,0.95759 2.185812,4.8629 4.323293,8.67846 6.168466,11.01121 7.579698,14.32686 9.065198,21.29849 1.358874,6.37736 2.847988,11.59147 3.495297,12.23877 0.289661,0.28967 0.526643,1.16187 0.526643,1.93823 0,2.08808 -1.735738,1.14843 -2.491883,-1.349 -0.357877,-1.18207 -0.917017,-2.81204 -1.242512,-3.62216 -0.325496,-0.81011 -0.824959,-2.29505 -1.109879,-3.29985 -0.284944,-1.00481 -1.101042,-2.66186 -1.813574,-3.68234 -0.712532,-1.02048 -2.689532,-4.29328 -4.393349,-7.2729 -1.70384,-2.97961 -3.808387,-6.10298 -4.67682,-6.94082 -2.296788,-2.2159 -11.324795,-15.16024 -12.820307,-18.38171 -0.703211,-1.51484 -1.676383,-2.75763 -2.16259,-2.76175 -0.486183,-0.004 -1.149004,-0.4275 -1.472934,-0.94085 -0.323908,-0.51334 -2.978297,-2.53239 -5.898596,-4.48677 -6.020505,-4.02913 -11.758989,-5.27184 -14.574959,-3.1563 -1.3887,1.04328 -1.39715,1.13593 -0.14776,1.62011 2.14853,0.83267 9.506344,8.96449 11.637612,12.86181 5.043097,9.22205 9.485214,22.03107 9.493914,27.37619 0.0023,1.90011 0.337025,3.65957 0.742082,3.90991 0.405057,0.25034 0.734442,1.18128 0.731934,2.06875 -0.0046,1.40912 -0.150286,1.33383 -1.155701,-0.59417 -0.633132,-1.21427 -1.572082,-2.70561 -2.08655,-3.3141 -0.514492,-0.60849 -1.805933,-3.79485 -2.869875,-7.0808 -1.938151,-5.9859 -6.540864,-14.64264 -12.274606,-23.08595 -3.09981,-4.56468 -7.73311,-8.55726 -10.83353,-9.33542 -0.93315,-0.2342 -1.51367,-0.72189 -1.29003,-1.08373 0.2237,-0.36185 0.13532,-0.65791 -0.19609,-0.65791 -0.33152,0 -1.00339,0.64149 -1.49302,1.42554 -0.75969,1.21645 -0.39754,2.31633 2.46905,7.49875 5.12744,9.26971 9.07905,18.73702 9.10593,21.81601 0.0184,2.20386 -3.26934,-2.06773 -5.8397,-7.58527 -3.22651,-6.92606 -7.18988,-13.30966 -10.55019,-16.99269 -1.31013,-1.43594 -2.64707,-3.07849 -2.971,-3.6501 -0.39022,-0.68863 -1.88119,-1.0355 -4.41881,-1.02803 -2.10641,0.006 -3.49845,0.25476 -3.09339,0.55235 2.07458,1.52416 7.36652,10.479 9.26207,15.67296 2.29586,6.29083 2.61756,8.42936 1.38283,9.19248 -1.15423,0.71335 -7.18072,-4.91416 -7.26141,-6.78066 -0.0382,-0.88245 -0.49456,-2.04238 -1.0142,-2.57764 -0.51965,-0.53525 -1.756,-2.13312 -2.74742,-3.55082 -2.35152,-3.36259 -10.69769,-11.40506 -13.98298,-13.47416 -2.43476,-1.53344 -3.4552,-1.62922 -18.41168,-1.7281 -8.70872,-0.0576 -16.16546,-0.17713 -16.57051,-0.26564 -2.16027,-0.47212 -13.15819,1.23901 -15.39336,2.395 -1.18939,0.61513 -1.31993,0.51712 -0.86602,-0.65019 0.29396,-0.75597 0.59277,-1.66082 0.66402,-2.01078 0.0713,-0.34995 -1.6932,-1.28517 -3.92102,-2.07826 -3.64383,-1.29719 -5.19682,-1.39009 -15.46581,-0.92522 -10.59483,0.47963 -17.96572,0.50394 -33.87749,0.11174 -5.76308,-0.14205 -6.27567,-0.0374 -6.45767,1.31863 -0.10872,0.81012 1.46424,4.42361 3.49549,8.03 3.18148,5.64854 3.80498,7.43427 4.50001,12.88817 0.74024,5.8086 0.67884,6.65461 -0.74393,10.2507 -0.85292,2.15577 -1.88557,6.29839 -2.29478,9.20584 -1.0785,7.66272 -2.8004,14.47039 -4.43605,17.53824 -1.6403,3.07658 -1.81114,5.11348 -0.53585,6.38877 0.52318,0.52319 1.25782,5.37927 1.77704,11.74665 l 0.88515,10.854763 -2.06658,2.209401 c -1.92619,2.059312 -2.97949,5.497797 -2.98089,9.73105 -3.8e-4,1.139177 -0.32998,1.503491 -1.09475,1.210023 -0.60181,-0.230936 -1.0942,-0.05303 -1.0942,0.395377 0,0.448393 -0.24856,0.81525 -0.55235,0.815237 -0.30379,-1.2e-5 -0.51993,-1.905621 -0.48031,-4.234685 0.11128,-6.54112 0.18069,-6.812301 1.74321,-6.812301 2.74637,0 3.21854,-2.496364 2.68954,-14.219495 -0.32255,-7.14786 -0.85934,-11.67694 -1.53995,-12.99309 -1.23362,-2.38556 -0.767,-4.91619 1.33445,-7.23715 1.53869,-1.69942 2.27079,-4.62496 6.14564,-24.55864 2.26134,-11.63318 2.01254,-13.60264 -2.71485,-21.49 -2.81418,-4.6953 -3.94835,-7.67277 -4.75701,-12.48831 -0.51468,-3.06489 -6.0545,-9.09114 -9.06322,-9.85902 -2.515,-0.64187 -5.72051,1.01765 -8.54309,4.42284 -1.39065,1.6777 -4.5856,5.20453 -7.0999,7.8374 -4.5793,4.79527 -7.35732,9.66337 -7.35732,12.89273 0,2.02361 -3.32425,6.25541 -4.91388,6.25541 -0.60533,0 -0.9789,-0.24855 -0.83015,-0.55235 3.05589,-6.24105 5.6052,-12.04982 6.02824,-13.73573 0.29485,-1.17501 1.34575,-2.77326 2.33534,-3.55167 3.22079,-2.53348 2.31788,-3.20345 -3.90837,-2.90008 -3.13919,0.15295 -6.11766,0.61074 -6.61882,1.01729 -0.50117,0.40655 -1.38442,0.5576 -1.96278,0.33566 -1.68065,-0.64493 -10.04975,0.78302 -11.37924,1.94154 -0.66692,0.58117 -4.52669,1.92499 -8.57726,2.98628 -4.05057,1.06129 -9.51884,2.72926 -12.15171,3.70661 -11.39486,4.22988 -14.99787,5.70174 -16.45387,6.72157 -0.852,0.59676 -2.58004,1.08502 -3.84011,1.08502 -3.32102,0 -3.49386,0.61384 -1.04386,3.70723 2.56276,3.23574 2.75169,4.3939 0.71676,4.3939 -0.81012,0 -1.47294,-0.31125 -1.47294,-0.69167 0,-0.38042 -1.24279,-2.12858 -2.76175,-3.8848 -1.51896,-1.75622 -3.42457,-4.67376 -4.23469,-6.48342 -0.81011,-1.80966 -2.5275,-4.21869 -3.81642,-5.3534 -1.28901,-1.13471 -3.05848,-3.53989 -3.93224,-5.34485 -0.87377,-1.80496 -1.84387,-3.28174 -2.15579,-3.28174 -0.31192,0 -2.02226,-1.15672 -3.80076,-2.57048 -2.493,-1.98175 -3.90835,-2.56676 -6.1795,-2.55422 -1.62023,0.009 -3.47365,0.42 -4.11871,0.91344 -1.39177,1.06463 -2.60906,4.65708 -3.29858,9.73477 -0.27502,2.02528 -0.91095,4.51086 -1.41319,5.5235 -5.38936,10.8665 -6.24338,13.58786 -6.25601,19.93506 -0.0138,6.92877 1.65429,12.77615 4.37145,15.32398 2.68143,2.51432 3.45811,4.11069 4.10769,8.44278 0.33939,2.26343 1.38573,4.68259 2.86683,6.6282 3.61167,4.74438 3.787,5.1359 2.05356,4.58573 -2.35302,-0.74682 -2.5263,0.54658 -0.95179,7.10453 0.80589,3.35662 1.83209,7.75986 2.28044,9.78498 0.44835,2.02512 1.41724,4.344993 2.15309,5.15527 0.73584,0.810275 1.75006,2.79887 2.2538,4.419098 1.99313,6.410687 5.39337,11.387268 13.36135,19.555636 8.79076,9.011834 9.78464,10.467245 10.53457,15.426558 0.74694,4.939561 3.28227,10.933079 6.46432,15.281694 1.55608,2.12655 3.06735,3.867229 3.35836,3.86818 0.29102,9.5e-4 1.68906,0.995353 3.10676,2.209783 1.4177,1.21443 3.73757,2.608689 5.15527,3.098355 3.56702,1.232031 27.98575,1.132857 27.98575,-0.113669 0,-0.252906 0.98555,-1.042005 2.19011,-1.753554 2.39609,-1.415405 7.38397,-8.394141 7.38397,-10.331202 0,-0.666924 0.34209,-1.212588 0.7602,-1.212588 0.41811,0 1.05992,-0.745673 1.42625,-1.657052 0.36633,-0.911378 0.68706,-1.193636 0.71273,-0.627239 0.0486,1.072406 4.46549,-3.080599 4.46549,-4.198713 0,-0.33257 0.99423,-1.339737 2.2094,-2.238154 1.21517,-0.898414 2.2094,-2.113035 2.2094,-2.699154 0,-0.586122 0.90739,-1.653284 2.01642,-2.371471 2.30083,-1.48997 8.29412,-7.548474 8.29412,-8.384359 0,-0.305298 0.64587,-0.760076 1.43527,-1.01062 0.78939,-0.250544 1.65711,-1.184255 1.92827,-2.074913 0.27116,-0.890659 1.02933,-2.229215 1.68482,-2.974571 0.65549,-0.745355 1.19626,-1.852367 1.20171,-2.460026 0.006,-0.607659 1.22345,-1.522915 2.70667,-2.033901 2.39889,-0.826448 2.64725,-0.798766 2.24855,0.250624 -0.24652,0.64883 -1.2115,1.783712 -2.14441,2.521963 -0.93291,0.738249 -1.6962,1.756145 -1.6962,2.261995 0,0.899146 -4.29037,5.766545 -11.91411,13.516486 -2.09078,2.125389 -3.58129,4.08447 -3.31224,4.353516 0.26904,0.269045 -0.58615,1.224206 -1.90043,2.122579 -3.96162,2.707951 -7.45403,6.381488 -9.95931,10.475825 -2.81748,4.604575 -2.88927,5.1525 -0.71555,5.461217 1.10626,0.157121 1.58512,0.663735 1.44065,1.524158 -0.19636,1.169483 0.63368,1.652718 2.31921,1.350191 0.34642,-0.06218 1.00924,0.191712 1.47293,0.564212 0.46368,0.372496 1.87536,0.897735 3.13706,1.167197 1.2617,0.269464 3.0088,1.155872 3.88244,1.969795 0.87364,0.813925 2.16122,1.422086 2.86128,1.35147 2.40232,-0.242325 3.12677,0.04472 4.71083,1.866546 1.15928,1.333291 2.05132,1.708814 3.30923,1.393095 1.40208,-0.351896 1.72214,-0.140251 1.72214,1.138774 0,1.68778 2.43341,3.007483 5.54553,3.007483 1.01357,0 2.10352,0.628184 2.55561,1.472935 0.4519,0.844382 1.54203,1.472934 2.55462,1.472934 1.37945,0 1.81739,0.443607 1.99938,2.025285 0.21201,1.842526 0.48224,2.010648 2.99479,1.863193 2.01245,-0.118065 2.76175,0.131644 2.76175,0.920584 0,0.595457 0.6247,1.082676 1.38823,1.082676 0.76353,0 1.93802,0.839089 2.60999,1.864643 0.67197,1.025531 1.49966,1.692885 1.83931,1.482969 0.33965,-0.209893 1.46797,0.287268 2.50738,1.104862 1.0394,0.817593 4.25879,2.0881374 7.15419,2.8234309 2.89539,0.7352935 5.48088,1.6667864 5.74552,2.0699562 0.81548,1.2423972 4.83209,1.6509064 9.60243,0.9766246 4.11865,-0.5821543 4.95656,-0.4590723 8.76342,1.2874598 3.94617,1.8104435 4.91912,1.9337788 15.56292,1.9729266 13.19787,0.048561 15.77585,-1.0737922 5.42202,-2.3604925 -8.74531,-1.0868185 -18.01311,-4.1091419 -21.21139,-6.9172686 -1.40836,-1.236574 -2.56066,-2.545369 -2.56066,-2.90847 0,-1.143066 3.00499,-0.717618 5.04158,0.713798 1.07517,0.755661 3.1099,1.964434 4.52162,2.686126 3.13869,1.6045549 17.9044,5.4780043 23.94605,6.2817202 2.43035,0.3233091 6.90438,0.9480634 9.94231,1.3883558 3.03793,0.4402923 7.08935,1.0089831 9.00315,1.2637547 5.65671,0.7530838 3.22877,1.90310036 -2.82097,1.3362047 -5.16438,-0.483951 -6.1251,-0.1880293 -4.88208,1.50391212 0.30119,0.40995908 5.11211,0.83768548 10.85161,0.96477208 8.5731,0.1898704 10.46877,0.4349759 11.2494,1.4545688 0.77518,1.0124813 1.19071,1.0689591 2.38353,0.3240456 0.79458,-0.4962178 1.93587,-0.9022184 2.53625,-0.9022184 1.80341,0 0.43081,2.1747647 -1.70517,2.70173 -2.39412,0.5906467 -7.49374,3.166763 -8.80898,4.4499421 -0.53527,0.5222013 -2.02662,0.9572003 -3.3141,0.9666593 -1.28751,0.0092 -3.99798,0.981941 -6.02327,2.161048 -2.02528,1.179107 -5.33938,3.033278 -7.36467,4.120373 -2.02528,1.087095 -5.00797,3.0394 -6.6282,4.338436 -1.62023,1.29906 -5.10004,3.813681 -7.73291,5.588107 -2.63287,1.774402 -6.44408,4.482185 -8.46936,6.017282 -2.02529,1.53512 -4.01375,2.796941 -4.41881,2.804099 -0.99065,0.01841 -15.9855,14.564836 -17.62911,17.103024 -1.0865,1.67788 -1.21717,2.901244 -0.78658,7.364673 0.80794,8.375174 1.40704,9.432327 13.41272,23.667939 2.34658,2.782419 5.75785,6.647675 7.58061,8.589463 1.82275,1.941788 3.90691,4.646211 4.63146,6.009826 1.33877,2.519597 2.01082,3.005917 7.88847,5.708427 1.82276,0.8381 4.19377,2.01879 5.26892,2.6238 2.32109,1.3061 9.93506,1.45648 15.31592,0.30248 3.66153,-0.78526 3.71858,-0.83973 3.71858,-3.54977 0,-2.11481 -0.63967,-3.500934 -2.76175,-5.984578 -2.8771,-3.367289 -2.63354,-3.347082 2.63027,0.218179 3.08927,2.092441 3.16784,2.243233 2.67846,5.139829 l -0.50416,2.98414 2.82732,-0.4588 c 1.55503,-0.25235 3.3324,-1.08886 3.94975,-1.85891 0.61734,-0.77004 2.01281,-1.6083 3.10103,-1.86278 1.80929,-0.4231 1.94533,-0.69881 1.58973,-3.222133 -0.55863,-3.964081 -1.73214,-7.528697 -2.52074,-7.656934 -0.37364,-0.06076 -1.0865,-0.143612 -1.58407,-0.184117 -0.4976,-0.04051 -2.0469,-1.337885 -3.44289,-2.883085 -1.39598,-1.545178 -3.54108,-3.328073 -4.76688,-3.961941 -1.2258,-0.633891 -2.60185,-1.52382 -3.05788,-1.977621 -0.45601,-0.453802 -1.99709,-1.848717 -3.42457,-3.099814 -1.42751,-1.25112 -2.80419,-3.073876 -3.05931,-4.05057 -0.25514,-0.976716 -2.50316,-3.87697 -4.9956,-6.445055 -4.52439,-4.66163 -4.53723,-4.668511 -7.93104,-4.236113 -8.94409,1.139545 -12.60515,1.310981 -12.60515,0.590301 0,-0.414539 1.9056,-1.334179 4.23468,-2.043627 2.32907,-0.709448 4.8975,-1.840017 5.70762,-2.512389 0.81011,-0.672372 2.79857,-1.303915 4.4188,-1.403407 4.8344,-0.296912 8.13624,-1.561334 27.61752,-10.575946 3.84804,-1.780617 8.15638,-3.687491 9.57407,-4.237494 5.86702,-2.276213 22.08187,-10.98869 26.88106,-14.443618 2.8354,-2.041188 6.74981,-4.624025 8.69869,-5.739635 1.94888,-1.11561 3.72894,-2.511859 3.9557,-3.102782 0.2267,-0.590923 1.36636,-1.567778 2.53244,-2.170783 1.16608,-0.603006 2.120148,-1.569366 2.120148,-2.14747 0,-0.578104 1.295078,-2.09182 2.87793,-3.36386 1.582875,-1.272017 3.049619,-2.9692746 3.259466,-3.7716786 0.209893,-0.8024271 1.060329,-1.6364532 1.890005,-1.8534119 0.996463,-0.2605943 2.412137,-2.3044289 4.170591,-6.02119491 1.464166,-3.09470429 3.092909,-6.12384009 3.61946,-6.73142549 0.526551,-0.6075855 1.177151,-2.1401738 1.445777,-3.4057467 0.268627,-1.2655494 1.331211,-3.0883064 2.361344,-4.0505694 2.674849,-2.498603 3.942379,-5.285372 3.942379,-8.667621 0,-2.783938 -0.363079,-3.261629 -6.812322,-8.962871 -3.746777,-3.312215 -8.137963,-6.904774 -9.758191,-7.983463 -3.861413,-2.570793 -9.879867,-4.591919 -11.983567,-4.024338 -2.50981,0.677161 -13.42455,-1.980073 -13.42455,-3.268262 0,-0.862909 1.02746,-0.96596 5.70762,-0.572458 l 5.70762,0.479891 -1.65705,-1.431998 c -0.91138,-0.787601 -1.65705,-1.896841 -1.65705,-2.464982 0,-1.678337 -3.71263,-4.619911 -8.83761,-7.002155 -6.86832,-3.192613 -9.60199,-4.037992 -19.69242,-6.089836 -2.52714,-0.513888 -4.96719,-1.383021 -5.42233,-1.931408 -1.38369,-1.66724 1.13229,-2.031 4.9799,-0.719991 1.90218,0.648135 4.10942,1.178428 4.90496,1.178428 2.20864,0 11.44799,2.821806 15.76203,4.813909 2.11541,0.976845 4.64138,1.975651 5.61322,2.219569 0.97184,0.243918 2.19688,1.246745 2.7223,2.228508 0.52543,0.981762 1.24797,1.785022 1.60564,1.785022 0.35769,0 0.99692,0.994231 1.42053,2.209402 0.42363,1.215171 1.03055,2.209401 1.34875,2.209401 0.31818,0 0.74903,0.652029 0.95743,1.448956 0.2283,0.872709 1.94651,2.144139 4.32058,3.196972 4.580914,2.031499 16.982838,10.349841 22.442983,15.053192 3.450625,2.972336 3.811656,3.586665 4.237587,7.210705 0.418796,3.563212 0.242113,4.313926 -1.757165,7.466466 -1.222536,1.927726 -2.715171,3.780493 -3.317002,4.117312 -0.601809,0.336795 -1.09423,1.2399113 -1.09423,2.0069189 0,0.7670306 -0.639414,1.8424569 -1.420944,2.3898591 -0.78153,0.5474023 -1.647431,1.8976229 -1.924251,3.0005056 l -0.50326,2.0052162 5.422447,-0.4814425 c 2.982347,-0.264806 5.753857,-0.7238092 6.158914,-1.0200531 0.92307,-0.6750643 9.844703,-1.9181289 21.35755,-2.9757879 5.039714,-0.4629847 13.861326,-2.0297267 20.527666,-3.6457659 6.42952,-1.5586174 12.137854,-2.6620294 12.685188,-2.4519984 1.636061,0.627815 14.1655094,-6.200042 21.570204,-11.754569 8.031451,-6.024666 16.427776,-13.027892 22.17779,-18.498112 2.227813,-2.119413 5.144914,-4.292783 6.482476,-4.829713 1.387827,-0.557108 2.281921,-1.367132 2.082546,-1.886707 -0.369546,-0.963051 3.29935,-4.807322 5.814754,-6.092683 1.855483,-0.948154 9.781297,-13.984544 10.408307,-17.119625 0.254104,-1.27048 1.560942,-4.837941 2.90412,-7.927695 1.782481,-4.100299 2.20397,-5.764922 1.560459,-6.162635 -0.612925,-0.378807 -0.154658,-1.294952 1.503337,-3.005601 1.311763,-1.353386 2.385026,-2.963867 2.385026,-3.578845 0,-0.61498 1.325641,-1.863195 2.945869,-2.773814 1.620228,-0.910618 2.945869,-1.365081 2.945869,-1.009913 0,0.355166 -0.828526,2.363209 -1.841168,4.462315 -1.012643,2.099107 -1.841168,4.279841 -1.841168,4.846077 0,0.566232 -0.445287,1.200386 -0.989513,1.409227 -0.544249,0.208835 -1.373235,2.290397 -1.842227,4.62568 -0.928593,4.62373 -4.937943,13.577015 -6.50266,14.521057 -0.536885,0.323919 -0.976141,1.381445 -0.976141,2.350053 0,0.968611 -0.344023,1.973719 -0.764476,2.233577 -0.420454,0.259855 -1.792262,2.293633 -3.048468,4.519506 -1.256206,2.225871 -3.008446,4.322469 -3.893864,4.659105 -1.99502,0.7585 -3.659643,3.234102 -4.853066,7.217388 -0.733682,2.448858 -0.72443,4.158173 0.04695,8.667771 0.55891,3.267486 1.374593,5.776117 1.949843,5.996864 0.543927,0.208719 0.988984,0.99215 0.988984,1.740939 0,1.250522 1.985884,4.776142 4.744598,8.423289 2.713283,3.587102 6.086257,9.074887 7.24251,11.7834756 1.707638,4.0002368 4.051238,14.5117184 4.615049,20.6991704 0.25445,2.792454 0.895475,6.734234 1.424512,8.759519 0.529037,2.025284 1.167876,6.830733 1.41961,10.678774 0.251756,3.848042 0.954875,9.150606 1.562484,11.783476 3.369499,14.600693 4.838336,22.54027 5.109264,27.617521 0.313436,5.873878 1.218669,11.415242 1.864781,11.415242 1.217289,0 1.869476,4.271763 1.799029,11.783476 -0.05984,6.373368 -0.43661,8.833488 -2.143465,13.992878 -1.139039,3.44298 -2.686771,7.13966 -3.43944,8.21483 -0.752647,1.07517 -1.368448,2.15239 -1.368448,2.39386 0,0.24145 -2.192739,3.60595 -4.872744,7.47669 -5.449627,7.8709 -15.227035,18.5868 -18.433843,20.20323 -1.15584,0.58261 -2.998964,1.66384 -4.095794,2.40272 -1.432521,0.965 -4.440483,1.55213 -10.678775,2.08439 -4.776496,0.40754 -10.175882,1.03331 -11.998639,1.39056 -2.003651,0.39272 -3.411155,0.37984 -3.559576,-0.0327 -0.7940727,-2.2065 -8.2238993,2.09799 -8.2238993,4.76455 0,0.52428 -0.6990915,1.58456 -1.55357764,2.35619 -3.64857376,3.29484 -8.78244076,10.58057 -9.04508336,12.83635 -0.2504449,2.15099 1.4762025,6.5938 2.5670946,6.6054 0.2408018,0.002 1.4007377,0.83278 2.5776353,1.84494 3.44489451,2.9626 4.339426,2.49614 9.1782919,-4.78614 1.7494548,-2.63287 3.5658822,-5.11845 4.0364845,-5.5235 0.470603,-0.40506 1.940315,-2.45301 3.266002,-4.55102 2.611697,-4.13317 5.670476,-6.01176 7.825149,-4.80594 1.138578,0.63719 1.033355,0.84938 -0.922794,1.86094 -1.4032,0.72563 -3.087132,2.79135 -4.620273,5.66783 -1.326815,2.48935 -3.869859,6.16713 -5.651258,8.17285 -5.0253994,5.65835 -4.7012387,6.15924 4.678155,7.22847 4.354385,0.49638 8.414161,1.00402 9.021746,1.12804 0.607586,0.12405 1.316044,0.26398 1.57436,0.31098 0.258316,0.0469 2.578188,-0.87198 5.155271,-2.04211 z m 73.650354,-82.01384 c -1.95962,-7.731684 -2.20132,-9.969555 -2.38546,-22.08757 -0.18066,-11.886397 0.15512,-14.589278 1.53535,-12.356171 0.87064,1.408769 1.42608,5.822463 2.22597,17.689114 0.36861,5.468269 0.99585,11.919538 1.39388,14.336163 0.50055,3.039104 0.48172,4.685384 -0.061,5.339384 -1.28967,1.55395 -1.68165,1.13126 -2.7087,-2.92092 z M -332.66103,-40.649879 c -1.86992,-1.722213 -3.64705,-3.946072 -3.94919,-4.941912 -0.30214,-0.995842 -1.317,-2.639144 -2.25525,-3.651786 -2.54317,-2.744827 -2.91788,-5.216354 -1.08856,-7.1799 1.82727,-1.961346 5.14941,-3.768252 7.08545,-3.853767 0.7689,-0.03397 3.26148,-0.244793 5.53906,-0.468511 3.30154,-0.324298 4.75132,-0.09544 7.15122,1.128903 1.65558,0.844618 3.79868,1.535668 4.76244,1.535668 1.16307,0 2.0397,0.630768 2.60698,1.875821 1.3529,2.969296 1.03267,4.399989 -1.72319,7.698527 -1.41782,1.697027 -2.40817,3.360067 -2.20077,3.695643 0.72584,1.174433 -5.93669,5.878157 -8.32604,5.878157 -1.25081,0 -2.47903,0.33141 -2.72937,0.736467 -0.71377,1.154905 -1.24611,0.886886 -4.87278,-2.45331 z m -20.90357,-54.728298 c -2.38134,-1.202738 -4.99352,-5.496023 -4.35553,-7.158603 0.21544,-0.56144 1.72517,-1.62209 3.35493,-2.35702 2.37972,-1.0731 3.23933,-1.16378 4.36543,-0.46052 0.77122,0.48164 2.15239,0.88624 3.06927,0.89912 0.91687,0.0129 2.29259,0.49702 3.05716,1.07585 1.1984,0.90728 1.27054,1.34111 0.52307,3.14567 -1.28779,3.108997 -4.32917,6.072007 -6.17768,6.018503 -0.89499,-0.02591 -2.62148,-0.549255 -3.83665,-1.163 z m 3.1789,-5.608523 c 0.23924,-2.07268 -0.64816,-2.51998 -3.11866,-1.57196 -1.39373,0.53482 -1.50477,1.86443 -0.25968,3.109514 1.43386,1.43386 3.12417,0.664565 3.37834,-1.537554 z m 50.56567,2.797658 c -0.12154,-0.42134 -0.5776,-1.881228 -1.01348,-3.244188 -0.43588,-1.36296 -0.64047,-2.72411 -0.45465,-3.02478 0.54158,-0.8763 8.61689,-2.3748 11.35371,-2.10686 4.2277,0.4139 4.95531,4.15015 1.5252,7.831938 -1.3481,1.447013 -2.18488,1.642439 -6.37088,1.487887 -2.65041,-0.09786 -4.91837,-0.522655 -5.0399,-0.943997 z m 7.38221,-4.090258 c 0,-0.71831 -0.73844,-1.09462 -2.14803,-1.09462 -2.41346,0 -3.43957,1.52692 -1.39094,2.06981 2.16299,0.5732 3.53897,0.19404 3.53897,-0.97519 z m 324.944344,250.468 c 1.299082,-0.37256 3.617527,-1.94676 5.152072,-3.49822 1.534544,-1.55144 5.041578,-4.7159 7.793388,-7.03214 4.615486,-3.88488 7.285548,-6.81407 13.546509,-14.86119 2.694296,-3.46294 2.128321,-5.05477 -1.005278,-2.82739 -1.145114,0.81393 -3.407656,1.86694 -5.027884,2.34001 -1.620228,0.47304 -4.768626,1.38009 -6.996439,2.01566 -2.469283,0.70446 -6.400729,1.10114 -10.070614,1.01614 -5.987824,-0.13877 -6.036246,-0.12474 -9.044301,2.59281 -5.042936,4.55597 -11.592408,14.85247 -10.785309,16.9557 0.2782,0.72501 1.711089,1.03016 4.837209,1.03016 3.438289,0 4.733136,0.31894 5.73075,1.41155 1.490978,1.63298 2.599592,1.79482 5.869897,0.85691 z m 94.165686,-43.96758 c 1.78966,-1.46649 3.25395,-3.15314 3.25395,-3.74811 0,-0.594975 2.26643,-3.312539 5.03651,-6.03901 4.88142,-4.804551 5.05085,-5.094236 5.5015,-9.405768 0.57088,-5.461756 -0.12013,-8.016998 -3.57644,-13.224052 -1.4765,-2.224453 -3.50929,-6.074128 -4.51731,-8.554849 -1.00799,-2.480721 -3.25746,-7.347641 -4.99879,-10.815389 -2.69365,-5.364266 -3.86054,-8.587369 -6.74857,-18.640837 -0.52934,-1.842618 -2.39674,-1.593025 -2.75506,0.368233 -0.16662,0.911378 -0.67474,3.645513 -1.12939,6.075855 -0.74048,3.958074 -0.68888,4.533991 0.49476,5.523504 0.7268,0.607586 1.72251,2.855491 2.2127,4.995342 0.49018,2.139852 1.59413,5.433586 2.45321,7.31938 0.85907,1.885816 2.02883,4.752008 2.59946,6.369314 0.57062,1.617328 1.88232,4.048222 2.91489,5.401987 2.56696,3.365448 2.13718,4.918404 -1.39505,5.041072 -2.05408,0.07134 -2.99218,-0.272631 -3.54115,-1.298392 -1.2186,-2.276973 -2.84529,-8.160862 -2.85385,-10.322716 -0.0115,-2.765296 -2.17102,-7.931913 -3.31615,-7.931913 -0.51636,0 -1.13867,0.745673 -1.3829,1.657051 -0.68416,2.552918 -0.54497,10.484302 0.2454,13.982314 0.39028,1.727292 1.06486,5.626126 1.49906,8.664053 0.43421,3.037928 1.3284,7.677671 1.9871,10.310542 0.6587,2.63287 1.33034,5.946972 1.49247,7.364672 0.16226,1.417699 0.57993,3.240457 0.92834,4.050567 0.34844,0.81012 0.83131,2.38432 1.07308,3.49822 0.24175,1.11391 0.62602,2.02529 0.85394,2.02529 0.22784,0 1.87863,-1.19987 3.66829,-2.66636 z M -193.38282,26.874409 c 1.41777,-0.75161 3.73764,-2.219988 5.15527,-3.263079 1.41761,-1.043068 5.22876,-3.843277 8.46921,-6.222642 3.24046,-2.379364 6.05745,-4.530493 6.25998,-4.780293 0.20252,-0.249801 1.96059,-1.53779 3.90679,-2.862211 4.80911,-3.2726993 4.22551,-4.1774493 -2.51123,-3.8930348 -6.23199,0.2631029 -20.89986,-1.1296257 -23.17789,-2.2007482 -0.84122,-0.3955289 -2.63277,-0.6110377 -3.98123,-0.4788648 -2.11312,0.2071314 -2.58947,0.640013 -3.44896,3.1344735 -0.85338,2.4767163 -0.82704,4.0701553 0.18262,11.0470083 0.6489,4.48405 1.35031,9.40082 1.55868,10.926159 l 0.37886,2.773328 2.31506,-1.406767 c 1.27328,-0.773728 3.47506,-2.021718 4.89285,-2.773329 z m -126.23303,-56.328247 c 3.81098,-0.532518 6.60174,-1.350483 7.7329,-2.266501 l 1.76992,-1.433275 -2.2094,0.435105 c -1.21517,0.239305 -6.2797,0.644657 -11.25451,0.90078 -8.66609,0.446163 -11.10487,1.138721 -8.90858,2.529829 1.39109,0.881098 5.78164,0.824489 12.86967,-0.165938 z"
       id="path1" />
  </g>
</svg>
